G04 EAGLE Gerber RS-274X export*
G75*
%MOMM*%
%FSLAX34Y34*%
%LPD*%
%INTop Copper*%
%IPPOS*%
%AMOC8*
5,1,8,0,0,1.08239X$1,22.5*%
G01*
%ADD10C,0.508000*%
%ADD11C,0.304800*%
%ADD12C,0.406400*%
%ADD13C,1.524000*%
%ADD14C,0.254000*%
%ADD15C,0.203200*%
%ADD16C,0.152400*%
%ADD17C,0.101600*%
%ADD18C,2.000000*%


D10*
X132362Y65899D02*
X135749Y65899D01*
X135749Y54610D01*
X128976Y54610D01*
X128845Y54612D01*
X128713Y54618D01*
X128582Y54627D01*
X128452Y54641D01*
X128321Y54658D01*
X128192Y54679D01*
X128063Y54703D01*
X127935Y54732D01*
X127807Y54764D01*
X127681Y54800D01*
X127556Y54839D01*
X127431Y54882D01*
X127309Y54929D01*
X127187Y54979D01*
X127067Y55033D01*
X126949Y55090D01*
X126833Y55151D01*
X126718Y55215D01*
X126605Y55282D01*
X126494Y55353D01*
X126386Y55427D01*
X126279Y55504D01*
X126175Y55584D01*
X126073Y55667D01*
X125974Y55752D01*
X125877Y55841D01*
X125783Y55933D01*
X125691Y56027D01*
X125602Y56124D01*
X125517Y56223D01*
X125434Y56325D01*
X125354Y56429D01*
X125277Y56536D01*
X125203Y56644D01*
X125132Y56755D01*
X125065Y56868D01*
X125001Y56983D01*
X124940Y57099D01*
X124883Y57217D01*
X124829Y57337D01*
X124779Y57459D01*
X124732Y57581D01*
X124689Y57706D01*
X124650Y57831D01*
X124614Y57957D01*
X124582Y58085D01*
X124553Y58213D01*
X124529Y58342D01*
X124508Y58471D01*
X124491Y58602D01*
X124477Y58732D01*
X124468Y58863D01*
X124462Y58995D01*
X124460Y59126D01*
X124460Y70414D01*
X124462Y70548D01*
X124468Y70682D01*
X124478Y70815D01*
X124492Y70948D01*
X124509Y71081D01*
X124531Y71213D01*
X124557Y71344D01*
X124586Y71475D01*
X124620Y71604D01*
X124657Y71733D01*
X124698Y71860D01*
X124743Y71986D01*
X124791Y72111D01*
X124843Y72234D01*
X124899Y72356D01*
X124958Y72476D01*
X125021Y72594D01*
X125088Y72711D01*
X125157Y72825D01*
X125230Y72937D01*
X125307Y73047D01*
X125386Y73154D01*
X125469Y73259D01*
X125555Y73362D01*
X125644Y73462D01*
X125736Y73560D01*
X125830Y73654D01*
X125928Y73746D01*
X126028Y73835D01*
X126131Y73921D01*
X126236Y74004D01*
X126343Y74083D01*
X126453Y74160D01*
X126565Y74233D01*
X126679Y74302D01*
X126796Y74369D01*
X126914Y74432D01*
X127034Y74491D01*
X127155Y74547D01*
X127279Y74599D01*
X127403Y74647D01*
X127530Y74692D01*
X127657Y74733D01*
X127786Y74770D01*
X127915Y74804D01*
X128046Y74833D01*
X128177Y74859D01*
X128309Y74881D01*
X128442Y74898D01*
X128575Y74912D01*
X128708Y74922D01*
X128842Y74928D01*
X128976Y74930D01*
X135749Y74930D01*
X147145Y74930D02*
X147145Y54610D01*
X147145Y62512D02*
X158434Y74930D01*
X151660Y67028D02*
X158434Y54610D01*
D11*
X130217Y18457D02*
X128185Y18457D01*
X130217Y18457D02*
X130217Y11684D01*
X126153Y11684D01*
X126052Y11686D01*
X125951Y11692D01*
X125850Y11701D01*
X125749Y11714D01*
X125649Y11731D01*
X125550Y11752D01*
X125452Y11776D01*
X125355Y11804D01*
X125258Y11836D01*
X125163Y11871D01*
X125070Y11910D01*
X124978Y11952D01*
X124887Y11998D01*
X124799Y12047D01*
X124712Y12099D01*
X124627Y12155D01*
X124544Y12213D01*
X124464Y12275D01*
X124386Y12340D01*
X124310Y12407D01*
X124237Y12477D01*
X124167Y12550D01*
X124100Y12626D01*
X124035Y12704D01*
X123973Y12784D01*
X123915Y12867D01*
X123859Y12952D01*
X123807Y13038D01*
X123758Y13127D01*
X123712Y13218D01*
X123670Y13310D01*
X123631Y13403D01*
X123596Y13498D01*
X123564Y13595D01*
X123536Y13692D01*
X123512Y13790D01*
X123491Y13889D01*
X123474Y13989D01*
X123461Y14090D01*
X123452Y14191D01*
X123446Y14292D01*
X123444Y14393D01*
X123444Y21167D01*
X123446Y21271D01*
X123452Y21374D01*
X123462Y21478D01*
X123476Y21581D01*
X123494Y21683D01*
X123515Y21784D01*
X123541Y21885D01*
X123570Y21984D01*
X123603Y22083D01*
X123640Y22180D01*
X123681Y22275D01*
X123725Y22369D01*
X123773Y22461D01*
X123824Y22551D01*
X123879Y22640D01*
X123937Y22726D01*
X123999Y22809D01*
X124063Y22891D01*
X124131Y22969D01*
X124201Y23045D01*
X124274Y23119D01*
X124351Y23189D01*
X124429Y23257D01*
X124511Y23321D01*
X124594Y23383D01*
X124680Y23441D01*
X124769Y23496D01*
X124859Y23547D01*
X124951Y23595D01*
X125045Y23639D01*
X125140Y23680D01*
X125237Y23717D01*
X125336Y23750D01*
X125435Y23779D01*
X125536Y23805D01*
X125637Y23826D01*
X125739Y23844D01*
X125842Y23858D01*
X125946Y23868D01*
X126049Y23874D01*
X126153Y23876D01*
X130217Y23876D01*
X138398Y23876D02*
X138398Y11684D01*
X138398Y16425D02*
X145172Y23876D01*
X141108Y19135D02*
X145172Y11684D01*
D12*
X132983Y40273D02*
X130274Y40273D01*
X132983Y40273D02*
X132983Y31242D01*
X127564Y31242D01*
X127446Y31244D01*
X127328Y31250D01*
X127210Y31259D01*
X127093Y31273D01*
X126976Y31290D01*
X126859Y31311D01*
X126744Y31336D01*
X126629Y31365D01*
X126515Y31398D01*
X126403Y31434D01*
X126292Y31474D01*
X126182Y31517D01*
X126073Y31564D01*
X125966Y31614D01*
X125861Y31669D01*
X125758Y31726D01*
X125657Y31787D01*
X125557Y31851D01*
X125460Y31918D01*
X125365Y31988D01*
X125273Y32062D01*
X125182Y32138D01*
X125095Y32218D01*
X125010Y32300D01*
X124928Y32385D01*
X124848Y32472D01*
X124772Y32563D01*
X124698Y32655D01*
X124628Y32750D01*
X124561Y32847D01*
X124497Y32947D01*
X124436Y33048D01*
X124379Y33151D01*
X124324Y33256D01*
X124274Y33363D01*
X124227Y33472D01*
X124184Y33582D01*
X124144Y33693D01*
X124108Y33805D01*
X124075Y33919D01*
X124046Y34034D01*
X124021Y34149D01*
X124000Y34266D01*
X123983Y34383D01*
X123969Y34500D01*
X123960Y34618D01*
X123954Y34736D01*
X123952Y34854D01*
X123952Y43886D01*
X123954Y44004D01*
X123960Y44122D01*
X123969Y44240D01*
X123983Y44357D01*
X124000Y44474D01*
X124021Y44591D01*
X124046Y44706D01*
X124075Y44821D01*
X124108Y44935D01*
X124144Y45047D01*
X124184Y45158D01*
X124227Y45268D01*
X124274Y45377D01*
X124324Y45484D01*
X124378Y45589D01*
X124436Y45692D01*
X124497Y45793D01*
X124561Y45893D01*
X124628Y45990D01*
X124698Y46085D01*
X124772Y46177D01*
X124848Y46268D01*
X124928Y46355D01*
X125010Y46440D01*
X125095Y46522D01*
X125182Y46602D01*
X125273Y46678D01*
X125365Y46752D01*
X125460Y46822D01*
X125557Y46889D01*
X125657Y46953D01*
X125758Y47014D01*
X125861Y47071D01*
X125966Y47125D01*
X126073Y47176D01*
X126182Y47223D01*
X126292Y47266D01*
X126403Y47306D01*
X126515Y47342D01*
X126629Y47375D01*
X126744Y47404D01*
X126859Y47429D01*
X126976Y47450D01*
X127093Y47467D01*
X127210Y47481D01*
X127328Y47490D01*
X127446Y47496D01*
X127564Y47498D01*
X132983Y47498D01*
X142997Y47498D02*
X142997Y31242D01*
X142997Y37564D02*
X152028Y47498D01*
X146609Y41176D02*
X152028Y31242D01*
D13*
X144780Y165100D02*
X160020Y165100D01*
X160020Y139700D02*
X144780Y139700D01*
X144780Y114300D02*
X160020Y114300D01*
X160020Y88900D02*
X144780Y88900D01*
X25400Y33020D02*
X25400Y17780D01*
X50800Y17780D02*
X50800Y33020D01*
X76200Y33020D02*
X76200Y17780D01*
X101600Y17780D02*
X101600Y33020D01*
D10*
X25400Y25400D02*
X25400Y101600D01*
X88900Y165100D01*
X152400Y165100D01*
D12*
X38100Y95250D02*
X38100Y25400D01*
X38100Y95250D02*
X95250Y152400D01*
X152400Y152400D01*
D11*
X50800Y88900D02*
X50800Y25400D01*
X50800Y88900D02*
X101600Y139700D01*
X152400Y139700D01*
D14*
X63500Y82550D02*
X63500Y25400D01*
X63500Y82550D02*
X107950Y127000D01*
X152400Y127000D01*
D15*
X76200Y76200D02*
X76200Y25400D01*
X76200Y76200D02*
X114300Y114300D01*
X152400Y114300D01*
D16*
X88900Y69850D02*
X88900Y25400D01*
X88900Y69850D02*
X120650Y101600D01*
X152400Y101600D01*
D17*
X101600Y63500D02*
X101600Y25400D01*
X101600Y63500D02*
X127000Y88900D01*
X152400Y88900D01*
D18*
X38100Y152400D03*
M02*
