G04 EAGLE Gerber RS-274X export*
G75*
%MOMM*%
%FSLAX34Y34*%
%LPD*%
%INTop Copper*%
%IPPOS*%
%AMOC8*
5,1,8,0,0,1.08239X$1,22.5*%
G01*
%ADD10C,0.355600*%
%ADD11C,1.400000*%
%ADD12C,1.524000*%
%ADD13R,1.000000X1.100000*%
%ADD14R,1.100000X1.000000*%
%ADD15C,1.879600*%
%ADD16R,2.540000X2.540000*%
%ADD17R,0.950000X2.150000*%
%ADD18R,3.250000X2.150000*%
%ADD19R,0.800000X0.900000*%
%ADD20R,1.000000X1.400000*%
%ADD21C,0.406400*%


D10*
X118618Y238252D02*
X118618Y221488D01*
X126069Y221488D01*
X132542Y221488D02*
X132542Y232664D01*
X132077Y237321D02*
X132077Y238252D01*
X133008Y238252D01*
X133008Y237321D01*
X132077Y237321D01*
X142555Y221488D02*
X147212Y221488D01*
X142555Y221488D02*
X142451Y221490D01*
X142346Y221496D01*
X142242Y221506D01*
X142139Y221519D01*
X142036Y221537D01*
X141933Y221558D01*
X141832Y221583D01*
X141731Y221612D01*
X141632Y221645D01*
X141534Y221681D01*
X141438Y221721D01*
X141343Y221765D01*
X141249Y221812D01*
X141158Y221862D01*
X141069Y221916D01*
X140981Y221973D01*
X140896Y222034D01*
X140813Y222098D01*
X140733Y222164D01*
X140655Y222234D01*
X140579Y222306D01*
X140507Y222382D01*
X140437Y222460D01*
X140371Y222540D01*
X140307Y222623D01*
X140246Y222708D01*
X140189Y222796D01*
X140135Y222885D01*
X140085Y222976D01*
X140038Y223070D01*
X139994Y223165D01*
X139954Y223261D01*
X139918Y223359D01*
X139885Y223458D01*
X139856Y223559D01*
X139831Y223660D01*
X139810Y223763D01*
X139792Y223866D01*
X139779Y223969D01*
X139769Y224073D01*
X139763Y224178D01*
X139761Y224282D01*
X139761Y229870D01*
X139763Y229974D01*
X139769Y230079D01*
X139779Y230183D01*
X139792Y230286D01*
X139810Y230389D01*
X139831Y230492D01*
X139856Y230593D01*
X139885Y230694D01*
X139918Y230793D01*
X139954Y230891D01*
X139994Y230987D01*
X140038Y231082D01*
X140085Y231176D01*
X140135Y231267D01*
X140189Y231356D01*
X140246Y231444D01*
X140307Y231529D01*
X140371Y231612D01*
X140437Y231692D01*
X140507Y231770D01*
X140579Y231846D01*
X140655Y231918D01*
X140733Y231988D01*
X140813Y232054D01*
X140896Y232118D01*
X140981Y232179D01*
X141069Y232236D01*
X141158Y232290D01*
X141249Y232340D01*
X141343Y232387D01*
X141438Y232431D01*
X141534Y232471D01*
X141632Y232507D01*
X141731Y232540D01*
X141832Y232569D01*
X141933Y232594D01*
X142036Y232615D01*
X142139Y232633D01*
X142242Y232646D01*
X142346Y232656D01*
X142451Y232662D01*
X142555Y232664D01*
X147212Y232664D01*
X147212Y218694D01*
X147210Y218590D01*
X147204Y218485D01*
X147194Y218381D01*
X147181Y218278D01*
X147163Y218175D01*
X147142Y218072D01*
X147117Y217971D01*
X147088Y217870D01*
X147055Y217771D01*
X147019Y217673D01*
X146979Y217577D01*
X146935Y217482D01*
X146888Y217388D01*
X146838Y217297D01*
X146784Y217208D01*
X146727Y217120D01*
X146666Y217035D01*
X146602Y216952D01*
X146536Y216872D01*
X146466Y216794D01*
X146394Y216718D01*
X146318Y216646D01*
X146240Y216576D01*
X146160Y216510D01*
X146077Y216446D01*
X145992Y216385D01*
X145904Y216328D01*
X145815Y216274D01*
X145724Y216224D01*
X145630Y216177D01*
X145535Y216133D01*
X145439Y216093D01*
X145341Y216057D01*
X145242Y216024D01*
X145141Y215995D01*
X145040Y215970D01*
X144937Y215949D01*
X144834Y215931D01*
X144731Y215918D01*
X144627Y215908D01*
X144522Y215902D01*
X144418Y215900D01*
X140693Y215900D01*
X156198Y221488D02*
X156198Y238252D01*
X156198Y232664D02*
X160855Y232664D01*
X160959Y232662D01*
X161064Y232656D01*
X161168Y232646D01*
X161271Y232633D01*
X161374Y232615D01*
X161477Y232594D01*
X161578Y232569D01*
X161679Y232540D01*
X161778Y232507D01*
X161876Y232471D01*
X161972Y232431D01*
X162067Y232387D01*
X162161Y232340D01*
X162252Y232290D01*
X162341Y232236D01*
X162429Y232179D01*
X162514Y232118D01*
X162597Y232054D01*
X162677Y231988D01*
X162755Y231918D01*
X162831Y231846D01*
X162903Y231770D01*
X162973Y231692D01*
X163039Y231612D01*
X163103Y231529D01*
X163164Y231444D01*
X163221Y231356D01*
X163275Y231267D01*
X163325Y231176D01*
X163372Y231082D01*
X163416Y230987D01*
X163456Y230891D01*
X163492Y230793D01*
X163525Y230694D01*
X163554Y230593D01*
X163579Y230492D01*
X163600Y230389D01*
X163618Y230286D01*
X163631Y230183D01*
X163641Y230079D01*
X163647Y229974D01*
X163649Y229870D01*
X163649Y221488D01*
X170329Y232664D02*
X175917Y232664D01*
X172191Y238252D02*
X172191Y224282D01*
X172193Y224178D01*
X172199Y224073D01*
X172209Y223969D01*
X172222Y223866D01*
X172240Y223763D01*
X172261Y223660D01*
X172286Y223559D01*
X172315Y223458D01*
X172348Y223359D01*
X172384Y223261D01*
X172424Y223165D01*
X172468Y223070D01*
X172515Y222976D01*
X172565Y222885D01*
X172619Y222796D01*
X172676Y222708D01*
X172737Y222623D01*
X172801Y222540D01*
X172867Y222460D01*
X172937Y222382D01*
X173009Y222306D01*
X173085Y222234D01*
X173163Y222164D01*
X173243Y222098D01*
X173326Y222034D01*
X173411Y221973D01*
X173499Y221916D01*
X173588Y221862D01*
X173679Y221812D01*
X173773Y221765D01*
X173868Y221721D01*
X173964Y221681D01*
X174062Y221645D01*
X174161Y221612D01*
X174262Y221583D01*
X174363Y221558D01*
X174466Y221537D01*
X174569Y221519D01*
X174672Y221506D01*
X174776Y221496D01*
X174881Y221490D01*
X174985Y221488D01*
X175917Y221488D01*
X184393Y228007D02*
X189050Y226145D01*
X184393Y228007D02*
X184304Y228045D01*
X184216Y228086D01*
X184130Y228131D01*
X184045Y228179D01*
X183963Y228231D01*
X183883Y228286D01*
X183805Y228344D01*
X183730Y228405D01*
X183657Y228470D01*
X183587Y228537D01*
X183519Y228607D01*
X183455Y228679D01*
X183393Y228754D01*
X183335Y228832D01*
X183279Y228912D01*
X183227Y228993D01*
X183178Y229077D01*
X183133Y229163D01*
X183091Y229251D01*
X183053Y229340D01*
X183018Y229431D01*
X182987Y229523D01*
X182959Y229616D01*
X182936Y229710D01*
X182916Y229805D01*
X182900Y229901D01*
X182888Y229998D01*
X182880Y230094D01*
X182876Y230191D01*
X182875Y230289D01*
X182879Y230386D01*
X182886Y230483D01*
X182898Y230579D01*
X182913Y230675D01*
X182932Y230770D01*
X182955Y230865D01*
X182981Y230958D01*
X183012Y231050D01*
X183046Y231141D01*
X183084Y231231D01*
X183125Y231319D01*
X183170Y231405D01*
X183218Y231489D01*
X183269Y231571D01*
X183324Y231652D01*
X183382Y231730D01*
X183443Y231805D01*
X183507Y231878D01*
X183574Y231948D01*
X183644Y232016D01*
X183716Y232081D01*
X183791Y232143D01*
X183869Y232201D01*
X183948Y232257D01*
X184030Y232309D01*
X184114Y232358D01*
X184200Y232404D01*
X184287Y232446D01*
X184376Y232485D01*
X184467Y232519D01*
X184559Y232551D01*
X184652Y232578D01*
X184746Y232602D01*
X184841Y232622D01*
X184937Y232638D01*
X185034Y232650D01*
X185130Y232659D01*
X185227Y232663D01*
X185325Y232664D01*
X185579Y232657D01*
X185833Y232644D01*
X186087Y232626D01*
X186340Y232601D01*
X186592Y232569D01*
X186844Y232532D01*
X187094Y232489D01*
X187344Y232440D01*
X187592Y232385D01*
X187839Y232324D01*
X188084Y232257D01*
X188328Y232184D01*
X188570Y232105D01*
X188810Y232020D01*
X189047Y231930D01*
X189283Y231834D01*
X189516Y231733D01*
X189050Y226145D02*
X189139Y226107D01*
X189227Y226066D01*
X189313Y226021D01*
X189398Y225973D01*
X189480Y225921D01*
X189560Y225866D01*
X189638Y225808D01*
X189713Y225747D01*
X189786Y225682D01*
X189856Y225615D01*
X189924Y225545D01*
X189988Y225473D01*
X190050Y225398D01*
X190108Y225320D01*
X190164Y225240D01*
X190216Y225159D01*
X190265Y225075D01*
X190310Y224989D01*
X190352Y224901D01*
X190390Y224812D01*
X190425Y224721D01*
X190456Y224629D01*
X190484Y224536D01*
X190507Y224442D01*
X190527Y224347D01*
X190543Y224251D01*
X190555Y224154D01*
X190563Y224058D01*
X190567Y223961D01*
X190568Y223863D01*
X190564Y223766D01*
X190557Y223670D01*
X190545Y223573D01*
X190530Y223477D01*
X190511Y223382D01*
X190488Y223287D01*
X190462Y223194D01*
X190431Y223102D01*
X190397Y223011D01*
X190359Y222921D01*
X190318Y222833D01*
X190273Y222747D01*
X190225Y222663D01*
X190174Y222581D01*
X190119Y222500D01*
X190061Y222422D01*
X190000Y222347D01*
X189936Y222274D01*
X189869Y222204D01*
X189799Y222136D01*
X189727Y222071D01*
X189652Y222009D01*
X189574Y221951D01*
X189495Y221895D01*
X189413Y221843D01*
X189329Y221794D01*
X189243Y221748D01*
X189156Y221706D01*
X189067Y221667D01*
X188976Y221633D01*
X188884Y221601D01*
X188791Y221574D01*
X188697Y221550D01*
X188602Y221530D01*
X188506Y221514D01*
X188409Y221502D01*
X188313Y221493D01*
X188216Y221489D01*
X188119Y221488D01*
X188119Y221489D02*
X187745Y221498D01*
X187372Y221517D01*
X186999Y221544D01*
X186628Y221581D01*
X186257Y221626D01*
X185887Y221679D01*
X185519Y221742D01*
X185152Y221813D01*
X184787Y221893D01*
X184424Y221981D01*
X184063Y222078D01*
X183705Y222184D01*
X183349Y222298D01*
X182996Y222420D01*
X198611Y228007D02*
X209787Y228007D01*
X220776Y221488D02*
X224502Y221488D01*
X220776Y221488D02*
X220672Y221490D01*
X220567Y221496D01*
X220463Y221506D01*
X220360Y221519D01*
X220257Y221537D01*
X220154Y221558D01*
X220053Y221583D01*
X219952Y221612D01*
X219853Y221645D01*
X219755Y221681D01*
X219659Y221721D01*
X219564Y221765D01*
X219470Y221812D01*
X219379Y221862D01*
X219290Y221916D01*
X219202Y221973D01*
X219117Y222034D01*
X219034Y222098D01*
X218954Y222164D01*
X218876Y222234D01*
X218800Y222306D01*
X218728Y222382D01*
X218658Y222460D01*
X218592Y222540D01*
X218528Y222623D01*
X218467Y222708D01*
X218410Y222796D01*
X218356Y222885D01*
X218306Y222976D01*
X218259Y223070D01*
X218215Y223165D01*
X218175Y223261D01*
X218139Y223359D01*
X218106Y223458D01*
X218077Y223559D01*
X218052Y223660D01*
X218031Y223763D01*
X218013Y223866D01*
X218000Y223969D01*
X217990Y224073D01*
X217984Y224178D01*
X217982Y224282D01*
X217982Y229870D01*
X217984Y229974D01*
X217990Y230079D01*
X218000Y230183D01*
X218013Y230286D01*
X218031Y230389D01*
X218052Y230492D01*
X218077Y230593D01*
X218106Y230694D01*
X218139Y230793D01*
X218175Y230891D01*
X218215Y230987D01*
X218259Y231082D01*
X218306Y231176D01*
X218356Y231267D01*
X218410Y231356D01*
X218467Y231444D01*
X218528Y231529D01*
X218592Y231612D01*
X218658Y231692D01*
X218728Y231770D01*
X218800Y231846D01*
X218876Y231918D01*
X218954Y231988D01*
X219034Y232054D01*
X219117Y232118D01*
X219202Y232179D01*
X219290Y232236D01*
X219379Y232290D01*
X219470Y232340D01*
X219564Y232387D01*
X219659Y232431D01*
X219755Y232471D01*
X219853Y232507D01*
X219952Y232540D01*
X220053Y232569D01*
X220154Y232594D01*
X220257Y232615D01*
X220360Y232633D01*
X220463Y232646D01*
X220567Y232656D01*
X220672Y232662D01*
X220776Y232664D01*
X224502Y232664D01*
X229751Y232664D02*
X235339Y232664D01*
X231614Y238252D02*
X231614Y224282D01*
X231616Y224178D01*
X231622Y224073D01*
X231632Y223969D01*
X231645Y223866D01*
X231663Y223763D01*
X231684Y223660D01*
X231709Y223559D01*
X231738Y223458D01*
X231771Y223359D01*
X231807Y223261D01*
X231847Y223165D01*
X231891Y223070D01*
X231938Y222976D01*
X231988Y222885D01*
X232042Y222796D01*
X232099Y222708D01*
X232160Y222623D01*
X232224Y222540D01*
X232290Y222460D01*
X232360Y222382D01*
X232432Y222306D01*
X232508Y222234D01*
X232586Y222164D01*
X232666Y222098D01*
X232749Y222034D01*
X232834Y221973D01*
X232922Y221916D01*
X233011Y221862D01*
X233102Y221812D01*
X233196Y221765D01*
X233291Y221721D01*
X233387Y221681D01*
X233485Y221645D01*
X233584Y221612D01*
X233685Y221583D01*
X233786Y221558D01*
X233889Y221537D01*
X233992Y221519D01*
X234095Y221506D01*
X234199Y221496D01*
X234304Y221490D01*
X234408Y221488D01*
X235339Y221488D01*
X243149Y221488D02*
X243149Y232664D01*
X248737Y232664D01*
X248737Y230801D01*
X254759Y224282D02*
X254759Y238252D01*
X254759Y224282D02*
X254761Y224178D01*
X254767Y224073D01*
X254777Y223969D01*
X254790Y223866D01*
X254808Y223763D01*
X254829Y223660D01*
X254854Y223559D01*
X254883Y223458D01*
X254916Y223359D01*
X254952Y223261D01*
X254992Y223165D01*
X255036Y223070D01*
X255083Y222976D01*
X255133Y222885D01*
X255187Y222796D01*
X255244Y222708D01*
X255305Y222623D01*
X255369Y222540D01*
X255435Y222460D01*
X255505Y222382D01*
X255577Y222306D01*
X255653Y222234D01*
X255731Y222164D01*
X255811Y222098D01*
X255894Y222034D01*
X255979Y221973D01*
X256067Y221916D01*
X256156Y221862D01*
X256247Y221812D01*
X256341Y221765D01*
X256436Y221721D01*
X256532Y221681D01*
X256630Y221645D01*
X256729Y221612D01*
X256830Y221583D01*
X256931Y221558D01*
X257034Y221537D01*
X257137Y221519D01*
X257240Y221506D01*
X257344Y221496D01*
X257449Y221490D01*
X257553Y221488D01*
X274026Y221488D02*
X274026Y232664D01*
X279614Y232664D01*
X279614Y230801D01*
X288323Y221488D02*
X292980Y221488D01*
X288323Y221488D02*
X288219Y221490D01*
X288114Y221496D01*
X288010Y221506D01*
X287907Y221519D01*
X287804Y221537D01*
X287701Y221558D01*
X287600Y221583D01*
X287499Y221612D01*
X287400Y221645D01*
X287302Y221681D01*
X287206Y221721D01*
X287111Y221765D01*
X287017Y221812D01*
X286926Y221862D01*
X286837Y221916D01*
X286749Y221973D01*
X286664Y222034D01*
X286581Y222098D01*
X286501Y222164D01*
X286423Y222234D01*
X286347Y222306D01*
X286275Y222382D01*
X286205Y222460D01*
X286139Y222540D01*
X286075Y222623D01*
X286014Y222708D01*
X285957Y222796D01*
X285903Y222885D01*
X285853Y222976D01*
X285806Y223070D01*
X285762Y223165D01*
X285722Y223261D01*
X285686Y223359D01*
X285653Y223458D01*
X285624Y223559D01*
X285599Y223660D01*
X285578Y223763D01*
X285560Y223866D01*
X285547Y223969D01*
X285537Y224073D01*
X285531Y224178D01*
X285529Y224282D01*
X285529Y228939D01*
X285531Y229060D01*
X285537Y229180D01*
X285547Y229300D01*
X285560Y229420D01*
X285578Y229540D01*
X285599Y229658D01*
X285624Y229776D01*
X285653Y229893D01*
X285686Y230009D01*
X285723Y230124D01*
X285763Y230238D01*
X285807Y230351D01*
X285854Y230461D01*
X285905Y230571D01*
X285960Y230678D01*
X286018Y230784D01*
X286079Y230888D01*
X286144Y230990D01*
X286212Y231089D01*
X286284Y231187D01*
X286358Y231282D01*
X286435Y231374D01*
X286516Y231464D01*
X286599Y231552D01*
X286685Y231636D01*
X286773Y231718D01*
X286865Y231797D01*
X286959Y231873D01*
X287055Y231945D01*
X287153Y232015D01*
X287254Y232082D01*
X287357Y232145D01*
X287462Y232204D01*
X287568Y232261D01*
X287677Y232314D01*
X287787Y232363D01*
X287898Y232409D01*
X288012Y232451D01*
X288126Y232489D01*
X288241Y232524D01*
X288358Y232555D01*
X288476Y232582D01*
X288594Y232605D01*
X288713Y232625D01*
X288833Y232640D01*
X288953Y232652D01*
X289073Y232660D01*
X289194Y232664D01*
X289314Y232664D01*
X289435Y232660D01*
X289555Y232652D01*
X289675Y232640D01*
X289795Y232625D01*
X289914Y232605D01*
X290032Y232582D01*
X290150Y232555D01*
X290267Y232524D01*
X290382Y232489D01*
X290496Y232451D01*
X290610Y232409D01*
X290721Y232363D01*
X290831Y232314D01*
X290940Y232261D01*
X291046Y232204D01*
X291151Y232145D01*
X291254Y232082D01*
X291355Y232015D01*
X291453Y231945D01*
X291549Y231873D01*
X291643Y231797D01*
X291735Y231718D01*
X291823Y231636D01*
X291909Y231552D01*
X291992Y231464D01*
X292073Y231374D01*
X292150Y231282D01*
X292224Y231187D01*
X292296Y231089D01*
X292364Y230990D01*
X292429Y230888D01*
X292490Y230784D01*
X292548Y230678D01*
X292603Y230571D01*
X292654Y230461D01*
X292701Y230351D01*
X292745Y230238D01*
X292785Y230124D01*
X292822Y230009D01*
X292855Y229893D01*
X292884Y229776D01*
X292909Y229658D01*
X292930Y229540D01*
X292948Y229420D01*
X292961Y229300D01*
X292971Y229180D01*
X292977Y229060D01*
X292979Y228939D01*
X292980Y228939D02*
X292980Y227076D01*
X285529Y227076D01*
X300093Y232664D02*
X303819Y221488D01*
X307544Y232664D01*
X314891Y229870D02*
X314895Y230200D01*
X314907Y230529D01*
X314926Y230859D01*
X314954Y231187D01*
X314989Y231515D01*
X315032Y231842D01*
X315083Y232168D01*
X315142Y232493D01*
X315209Y232816D01*
X315283Y233137D01*
X315365Y233456D01*
X315454Y233774D01*
X315551Y234089D01*
X315655Y234402D01*
X315767Y234712D01*
X315887Y235020D01*
X316013Y235324D01*
X316147Y235626D01*
X316288Y235924D01*
X316328Y236032D01*
X316370Y236140D01*
X316417Y236245D01*
X316467Y236349D01*
X316520Y236452D01*
X316577Y236552D01*
X316638Y236651D01*
X316701Y236748D01*
X316768Y236842D01*
X316837Y236934D01*
X316910Y237024D01*
X316986Y237111D01*
X317065Y237195D01*
X317146Y237277D01*
X317231Y237356D01*
X317317Y237433D01*
X317407Y237506D01*
X317498Y237576D01*
X317592Y237643D01*
X317689Y237707D01*
X317787Y237768D01*
X317887Y237825D01*
X317989Y237879D01*
X318093Y237930D01*
X318199Y237977D01*
X318306Y238020D01*
X318414Y238060D01*
X318524Y238096D01*
X318635Y238129D01*
X318747Y238158D01*
X318859Y238183D01*
X318973Y238204D01*
X319087Y238221D01*
X319202Y238235D01*
X319317Y238244D01*
X319432Y238250D01*
X319548Y238252D01*
X319664Y238250D01*
X319779Y238244D01*
X319894Y238235D01*
X320009Y238221D01*
X320123Y238204D01*
X320237Y238183D01*
X320349Y238158D01*
X320461Y238129D01*
X320572Y238096D01*
X320682Y238060D01*
X320790Y238020D01*
X320897Y237977D01*
X321003Y237930D01*
X321107Y237879D01*
X321209Y237825D01*
X321309Y237768D01*
X321407Y237707D01*
X321504Y237643D01*
X321598Y237576D01*
X321689Y237506D01*
X321779Y237433D01*
X321865Y237356D01*
X321950Y237277D01*
X322031Y237195D01*
X322110Y237111D01*
X322186Y237024D01*
X322259Y236934D01*
X322328Y236842D01*
X322395Y236748D01*
X322458Y236651D01*
X322519Y236552D01*
X322576Y236452D01*
X322629Y236349D01*
X322679Y236245D01*
X322726Y236139D01*
X322768Y236032D01*
X322808Y235924D01*
X322949Y235626D01*
X323083Y235324D01*
X323209Y235020D01*
X323329Y234712D01*
X323441Y234402D01*
X323545Y234089D01*
X323642Y233774D01*
X323731Y233456D01*
X323813Y233137D01*
X323887Y232816D01*
X323954Y232493D01*
X324013Y232168D01*
X324064Y231842D01*
X324107Y231515D01*
X324142Y231187D01*
X324170Y230859D01*
X324189Y230529D01*
X324201Y230200D01*
X324205Y229870D01*
X314891Y229870D02*
X314895Y229540D01*
X314907Y229211D01*
X314926Y228881D01*
X314954Y228553D01*
X314989Y228225D01*
X315032Y227898D01*
X315083Y227572D01*
X315142Y227248D01*
X315209Y226924D01*
X315283Y226603D01*
X315365Y226284D01*
X315454Y225966D01*
X315551Y225651D01*
X315655Y225338D01*
X315767Y225028D01*
X315887Y224720D01*
X316013Y224416D01*
X316147Y224114D01*
X316288Y223816D01*
X316328Y223708D01*
X316370Y223600D01*
X316417Y223495D01*
X316467Y223391D01*
X316520Y223288D01*
X316577Y223188D01*
X316638Y223089D01*
X316701Y222992D01*
X316768Y222898D01*
X316838Y222806D01*
X316910Y222716D01*
X316986Y222629D01*
X317065Y222545D01*
X317146Y222463D01*
X317231Y222384D01*
X317317Y222307D01*
X317407Y222234D01*
X317498Y222164D01*
X317592Y222097D01*
X317689Y222033D01*
X317787Y221972D01*
X317887Y221915D01*
X317989Y221861D01*
X318093Y221810D01*
X318199Y221763D01*
X318306Y221720D01*
X318414Y221680D01*
X318524Y221644D01*
X318635Y221611D01*
X318747Y221582D01*
X318859Y221557D01*
X318973Y221536D01*
X319087Y221519D01*
X319202Y221505D01*
X319317Y221496D01*
X319432Y221490D01*
X319548Y221488D01*
X322808Y223816D02*
X322949Y224114D01*
X323083Y224416D01*
X323209Y224720D01*
X323329Y225028D01*
X323441Y225338D01*
X323545Y225651D01*
X323642Y225966D01*
X323731Y226284D01*
X323813Y226603D01*
X323887Y226924D01*
X323954Y227248D01*
X324013Y227572D01*
X324064Y227898D01*
X324107Y228225D01*
X324142Y228553D01*
X324170Y228881D01*
X324189Y229211D01*
X324201Y229540D01*
X324205Y229870D01*
X322808Y223816D02*
X322768Y223708D01*
X322726Y223600D01*
X322679Y223495D01*
X322629Y223391D01*
X322576Y223288D01*
X322519Y223188D01*
X322458Y223089D01*
X322395Y222992D01*
X322328Y222898D01*
X322259Y222806D01*
X322186Y222716D01*
X322110Y222629D01*
X322031Y222545D01*
X321950Y222463D01*
X321865Y222384D01*
X321779Y222307D01*
X321689Y222234D01*
X321598Y222164D01*
X321504Y222097D01*
X321407Y222033D01*
X321309Y221972D01*
X321209Y221915D01*
X321107Y221861D01*
X321003Y221810D01*
X320897Y221763D01*
X320790Y221720D01*
X320682Y221680D01*
X320572Y221644D01*
X320461Y221611D01*
X320349Y221582D01*
X320237Y221557D01*
X320123Y221536D01*
X320009Y221519D01*
X319894Y221505D01*
X319779Y221496D01*
X319664Y221490D01*
X319548Y221488D01*
X315823Y225213D02*
X323274Y234527D01*
X337491Y238252D02*
X337618Y238250D01*
X337744Y238244D01*
X337870Y238235D01*
X337996Y238221D01*
X338122Y238204D01*
X338246Y238183D01*
X338371Y238159D01*
X338494Y238130D01*
X338616Y238098D01*
X338738Y238062D01*
X338858Y238023D01*
X338977Y237980D01*
X339095Y237933D01*
X339211Y237883D01*
X339326Y237829D01*
X339439Y237772D01*
X339550Y237711D01*
X339659Y237648D01*
X339766Y237580D01*
X339872Y237510D01*
X339975Y237437D01*
X340076Y237360D01*
X340174Y237281D01*
X340270Y237198D01*
X340364Y237113D01*
X340454Y237024D01*
X340543Y236934D01*
X340628Y236840D01*
X340711Y236744D01*
X340790Y236646D01*
X340867Y236545D01*
X340940Y236442D01*
X341010Y236336D01*
X341078Y236229D01*
X341141Y236120D01*
X341202Y236009D01*
X341259Y235896D01*
X341313Y235781D01*
X341363Y235665D01*
X341410Y235547D01*
X341453Y235428D01*
X341492Y235308D01*
X341528Y235186D01*
X341560Y235064D01*
X341589Y234941D01*
X341613Y234816D01*
X341634Y234692D01*
X341651Y234566D01*
X341665Y234440D01*
X341674Y234314D01*
X341680Y234188D01*
X341682Y234061D01*
X337491Y238252D02*
X337347Y238250D01*
X337203Y238244D01*
X337059Y238235D01*
X336916Y238221D01*
X336773Y238204D01*
X336630Y238183D01*
X336488Y238158D01*
X336347Y238129D01*
X336207Y238097D01*
X336068Y238060D01*
X335929Y238020D01*
X335792Y237977D01*
X335656Y237930D01*
X335521Y237879D01*
X335388Y237824D01*
X335256Y237766D01*
X335126Y237705D01*
X334997Y237640D01*
X334870Y237571D01*
X334745Y237499D01*
X334622Y237424D01*
X334502Y237346D01*
X334383Y237264D01*
X334266Y237179D01*
X334152Y237092D01*
X334040Y237001D01*
X333931Y236907D01*
X333824Y236810D01*
X333720Y236711D01*
X333619Y236609D01*
X333520Y236504D01*
X333424Y236396D01*
X333331Y236286D01*
X333241Y236173D01*
X333154Y236059D01*
X333070Y235941D01*
X332990Y235822D01*
X332912Y235701D01*
X332838Y235577D01*
X332767Y235452D01*
X332700Y235324D01*
X332636Y235195D01*
X332575Y235065D01*
X332518Y234932D01*
X332465Y234798D01*
X332415Y234663D01*
X332369Y234527D01*
X340286Y230801D02*
X340379Y230892D01*
X340469Y230986D01*
X340557Y231082D01*
X340641Y231181D01*
X340723Y231282D01*
X340802Y231386D01*
X340878Y231492D01*
X340951Y231600D01*
X341020Y231710D01*
X341087Y231822D01*
X341150Y231936D01*
X341210Y232051D01*
X341266Y232169D01*
X341319Y232288D01*
X341369Y232408D01*
X341415Y232530D01*
X341457Y232653D01*
X341496Y232777D01*
X341531Y232902D01*
X341563Y233029D01*
X341591Y233156D01*
X341615Y233284D01*
X341636Y233412D01*
X341653Y233541D01*
X341666Y233671D01*
X341675Y233801D01*
X341681Y233931D01*
X341683Y234061D01*
X340285Y230801D02*
X332369Y221488D01*
X341682Y221488D01*
D11*
X437330Y569470D03*
X437330Y549470D03*
X437330Y529470D03*
X437330Y509470D03*
X437330Y489470D03*
X437330Y469470D03*
X437330Y449470D03*
X437330Y429470D03*
X271330Y569470D03*
X271330Y549470D03*
X271330Y529470D03*
X271330Y509470D03*
X271330Y489470D03*
X271330Y469470D03*
X271330Y449470D03*
X271330Y429470D03*
D12*
X28194Y109982D02*
X28194Y94742D01*
X73406Y94742D02*
X73406Y109982D01*
X28194Y44958D02*
X28194Y29718D01*
X73406Y29718D02*
X73406Y44958D01*
X162306Y44958D02*
X162306Y29718D01*
X117094Y29718D02*
X117094Y44958D01*
X162306Y94742D02*
X162306Y109982D01*
X117094Y109982D02*
X117094Y94742D01*
X251206Y44958D02*
X251206Y29718D01*
X205994Y29718D02*
X205994Y44958D01*
X251206Y94742D02*
X251206Y109982D01*
X205994Y109982D02*
X205994Y94742D01*
X340106Y44958D02*
X340106Y29718D01*
X294894Y29718D02*
X294894Y44958D01*
X340106Y94742D02*
X340106Y109982D01*
X294894Y109982D02*
X294894Y94742D01*
D13*
X50800Y61350D03*
X50800Y78350D03*
X139700Y61350D03*
X139700Y78350D03*
X228600Y61350D03*
X228600Y78350D03*
X317500Y61350D03*
X317500Y78350D03*
X419100Y110100D03*
X419100Y93100D03*
D14*
X281550Y69850D03*
X264550Y69850D03*
X192650Y69850D03*
X175650Y69850D03*
X103750Y69850D03*
X86750Y69850D03*
D12*
X175260Y499110D02*
X175260Y514350D01*
X149860Y514350D02*
X149860Y499110D01*
X124460Y499110D02*
X124460Y514350D01*
D14*
X183270Y537210D03*
X200270Y537210D03*
X248530Y535940D03*
X231530Y535940D03*
D12*
X175260Y450850D02*
X175260Y435610D01*
X149860Y435610D02*
X149860Y450850D01*
X124460Y450850D02*
X124460Y435610D01*
D14*
X183270Y476250D03*
X200270Y476250D03*
X248530Y515620D03*
X231530Y515620D03*
D12*
X175260Y387350D02*
X175260Y372110D01*
X149860Y372110D02*
X149860Y387350D01*
X124460Y387350D02*
X124460Y372110D01*
D14*
X183270Y412750D03*
X200270Y412750D03*
X248530Y495300D03*
X231530Y495300D03*
X289950Y429260D03*
X306950Y429260D03*
X289950Y469900D03*
X306950Y469900D03*
X416170Y549910D03*
X399170Y549910D03*
D12*
X81280Y388620D02*
X66040Y388620D01*
X66040Y363220D02*
X81280Y363220D01*
D15*
X153670Y589280D03*
X128270Y589280D03*
D13*
X415290Y520310D03*
X415290Y503310D03*
D12*
X187960Y563880D02*
X187960Y579120D01*
X213360Y579120D02*
X213360Y563880D01*
X238760Y563880D02*
X238760Y579120D01*
X441706Y109982D02*
X441706Y94742D01*
X396494Y94742D02*
X396494Y109982D01*
X441706Y44958D02*
X441706Y29718D01*
X396494Y29718D02*
X396494Y44958D01*
D14*
X427600Y69850D03*
X410600Y69850D03*
X376800Y69850D03*
X359800Y69850D03*
D16*
X32680Y319680D03*
X32680Y147680D03*
X434680Y147680D03*
X434680Y319680D03*
D13*
X50800Y25790D03*
X50800Y42790D03*
X139700Y25790D03*
X139700Y42790D03*
X228600Y25790D03*
X228600Y42790D03*
X317500Y25790D03*
X317500Y42790D03*
X419100Y25790D03*
X419100Y42790D03*
D17*
X304940Y326180D03*
X281940Y326180D03*
X258940Y326180D03*
D18*
X281940Y268180D03*
D14*
X60080Y147320D03*
X77080Y147320D03*
D19*
X112370Y338930D03*
X93370Y338930D03*
X102870Y317930D03*
D20*
X173990Y317930D03*
X164490Y339930D03*
X183490Y339930D03*
D14*
X231530Y474980D03*
X248530Y474980D03*
D13*
X137160Y319160D03*
X137160Y336160D03*
D12*
X80010Y551180D02*
X64770Y551180D01*
X64770Y525780D02*
X80010Y525780D01*
X80010Y500380D02*
X64770Y500380D01*
X64770Y474980D02*
X80010Y474980D01*
X80010Y449580D02*
X64770Y449580D01*
X64770Y424180D02*
X80010Y424180D01*
X58420Y581660D02*
X58420Y596900D01*
X83820Y596900D02*
X83820Y581660D01*
D21*
X306950Y78350D02*
X298450Y69850D01*
X281550Y69850D01*
X306950Y78350D02*
X317500Y78350D01*
X328050Y78350D01*
X336550Y69850D02*
X359800Y69850D01*
X336550Y69850D02*
X328050Y78350D01*
X264550Y69850D02*
X247650Y69850D01*
X239150Y78350D02*
X228600Y78350D01*
X239150Y78350D02*
X247650Y69850D01*
X228600Y78350D02*
X218050Y78350D01*
X209550Y69850D01*
X192650Y69850D01*
X175650Y69850D02*
X158750Y69850D01*
X150250Y78350D02*
X139700Y78350D01*
X150250Y78350D02*
X158750Y69850D01*
X139700Y78350D02*
X129150Y78350D01*
X120650Y69850D01*
X103750Y69850D01*
X270510Y449470D02*
X271330Y449470D01*
X86750Y69850D02*
X69850Y69850D01*
X61350Y78350D01*
X50800Y78350D01*
X50800Y111760D01*
X236220Y271780D02*
X270510Y306070D01*
X77080Y253610D02*
X77080Y147320D01*
X77080Y253610D02*
X95250Y271780D01*
X236220Y271780D01*
X77080Y147320D02*
X77080Y138040D01*
X50800Y111760D01*
X270510Y306070D02*
X270510Y406400D01*
X255270Y421640D01*
X255270Y441960D01*
X262890Y449580D01*
X270400Y449580D01*
X270510Y449470D01*
X50800Y61350D02*
X50800Y61214D01*
X28194Y38608D01*
X28194Y37338D01*
X28194Y102362D01*
X50800Y61350D02*
X50800Y42790D01*
X306950Y429260D02*
X306950Y469900D01*
X303140Y473710D01*
X303140Y537660D02*
X271330Y569470D01*
X303140Y537660D02*
X303140Y473710D01*
X121412Y102362D02*
X117094Y102362D01*
X73406Y102362D02*
X71120Y104648D01*
X281940Y268180D02*
X281940Y326180D01*
X383540Y270510D02*
X396494Y257556D01*
X396494Y124460D02*
X396494Y102362D01*
X396494Y124460D02*
X396494Y257556D01*
X281940Y326180D02*
X281940Y393564D01*
X306950Y418574D02*
X306950Y429260D01*
X306950Y418574D02*
X281940Y393564D01*
X284270Y270510D02*
X281940Y268180D01*
X284270Y270510D02*
X383540Y270510D01*
X294894Y102616D02*
X294894Y102362D01*
X90932Y124460D02*
X71120Y104648D01*
X294640Y124460D02*
X396494Y124460D01*
X205994Y124460D02*
X116840Y124460D01*
X90932Y124460D01*
X116840Y102616D02*
X117094Y102362D01*
X116840Y102616D02*
X116840Y124460D01*
X294894Y124206D02*
X294894Y102362D01*
X294894Y124206D02*
X294640Y124460D01*
X205994Y124460D02*
X205994Y102362D01*
X205994Y124460D02*
X294640Y124460D01*
X437330Y469470D02*
X435618Y471182D01*
X414109Y471182D01*
X290931Y594360D02*
X224790Y594360D01*
X290931Y594360D02*
X414109Y471182D01*
X213360Y571500D02*
X213360Y582930D01*
X224790Y594360D01*
X416610Y549470D02*
X437330Y549470D01*
X416610Y549470D02*
X416170Y549910D01*
X402730Y546350D02*
X399170Y549910D01*
X397900Y551180D01*
X435300Y571500D02*
X437330Y569470D01*
X443680Y569470D02*
X457200Y555950D01*
X443680Y569470D02*
X437330Y569470D01*
X73660Y363220D02*
X67310Y363220D01*
X419100Y125750D02*
X419100Y110100D01*
X419100Y125750D02*
X430870Y137520D01*
X430870Y143870D01*
X434680Y147680D01*
X50800Y25790D02*
X50800Y12700D01*
X139700Y12700D02*
X228600Y12700D01*
X317500Y12700D01*
X419100Y12700D01*
X452120Y12700D01*
X228600Y12700D02*
X228600Y25790D01*
X317500Y25790D02*
X317500Y12700D01*
X419100Y12700D02*
X419100Y25790D01*
X139700Y12700D02*
X50800Y12700D01*
X139700Y12700D02*
X139700Y25790D01*
X434680Y147680D02*
X434680Y258740D01*
X367240Y326180D01*
X443378Y147680D02*
X457708Y133350D01*
X443378Y147680D02*
X434680Y147680D01*
X434680Y258740D02*
X457200Y281260D01*
X457200Y555950D01*
X367240Y326180D02*
X304940Y326180D01*
X457708Y18288D02*
X452120Y12700D01*
X457708Y18288D02*
X457708Y133350D01*
X50800Y12700D02*
X22352Y12700D01*
X12192Y22860D01*
X12192Y127192D01*
X32680Y147680D01*
X33040Y147320D02*
X60080Y147320D01*
X33040Y147320D02*
X32680Y147680D01*
X130810Y482600D02*
X124460Y488950D01*
X124460Y506730D01*
X127000Y363220D02*
X73660Y363220D01*
X144780Y415290D02*
X162560Y415290D01*
X144780Y415290D02*
X124460Y435610D01*
X398290Y571500D02*
X435300Y571500D01*
X162560Y538480D02*
X127000Y574040D01*
X128270Y589280D02*
X83820Y589280D01*
X127000Y588010D02*
X127000Y574040D01*
X127000Y588010D02*
X128270Y589280D01*
X128270Y591820D02*
X149860Y613410D01*
X128270Y591820D02*
X128270Y589280D01*
X399170Y570620D02*
X399170Y549910D01*
X398290Y571500D02*
X356380Y613410D01*
X398290Y571500D02*
X399170Y570620D01*
X356380Y613410D02*
X149860Y613410D01*
X187960Y571500D02*
X194310Y565150D01*
X162560Y482600D02*
X130810Y482600D01*
X180730Y473710D02*
X183270Y476250D01*
X180730Y473710D02*
X162560Y473710D01*
X183270Y537210D02*
X183270Y566810D01*
X187960Y571500D01*
X162560Y473710D02*
X162560Y473710D01*
X162560Y482600D01*
X162560Y473710D02*
X162560Y473710D01*
X162560Y415290D01*
X125730Y378460D02*
X125730Y364490D01*
X125730Y378460D02*
X124460Y379730D01*
X125730Y364490D02*
X127000Y363220D01*
X135890Y354330D01*
X162560Y354330D01*
X162560Y341860D02*
X162560Y412750D01*
X162560Y341860D02*
X164490Y339930D01*
X162560Y412750D02*
X162560Y415290D01*
X162560Y412750D02*
X183270Y412750D01*
X162560Y482600D02*
X162560Y538480D01*
X163830Y537210D01*
X183270Y537210D01*
X124460Y443230D02*
X124460Y435610D01*
X267520Y509470D02*
X271330Y509470D01*
X267520Y509470D02*
X253350Y495300D01*
X248530Y495300D01*
X230260Y537210D02*
X200270Y537210D01*
X230260Y537210D02*
X231530Y535940D01*
X184150Y506730D02*
X175260Y506730D01*
X184150Y506730D02*
X200660Y523240D01*
X200660Y536820D01*
X200270Y537210D01*
X200270Y453000D02*
X190500Y443230D01*
X175260Y443230D01*
X200270Y453000D02*
X200270Y476250D01*
X200270Y486900D02*
X228990Y515620D01*
X200270Y486900D02*
X200270Y476250D01*
X228990Y515620D02*
X231530Y515620D01*
X231530Y495300D02*
X227720Y495300D01*
X216290Y483870D01*
X184540Y379730D02*
X175260Y379730D01*
X216290Y447820D02*
X216290Y483870D01*
X216290Y447820D02*
X200270Y431800D01*
X200270Y412750D01*
X200270Y395460D01*
X184540Y379730D01*
X248530Y474980D02*
X253030Y474980D01*
X267520Y489470D02*
X271330Y489470D01*
X267520Y489470D02*
X253030Y474980D01*
X248970Y535500D02*
X248530Y535940D01*
X267520Y549470D02*
X271330Y549470D01*
X267520Y549470D02*
X253550Y535500D01*
X248970Y535500D01*
X267520Y529470D02*
X271330Y529470D01*
X267520Y529470D02*
X253670Y515620D01*
X248530Y515620D01*
X149860Y455930D02*
X149860Y443230D01*
X149860Y455930D02*
X137160Y468630D01*
X123190Y468630D01*
X91440Y500380D02*
X72390Y500380D01*
X91440Y500380D02*
X123190Y468630D01*
X149860Y387350D02*
X149860Y379730D01*
X87630Y449580D02*
X72390Y449580D01*
X87630Y449580D02*
X149860Y387350D01*
X73660Y388620D02*
X63500Y388620D01*
X50800Y375920D01*
X18415Y342265D02*
X12192Y336042D01*
X12192Y302260D01*
X19812Y294640D01*
X104100Y319160D02*
X137160Y319160D01*
X104100Y319160D02*
X102870Y317930D01*
X258940Y317290D02*
X258940Y326180D01*
X258940Y317290D02*
X233540Y291890D01*
X164430Y291890D01*
X137160Y319160D01*
X102870Y317930D02*
X80010Y317930D01*
X56720Y294640D01*
X19812Y294640D01*
X73660Y422910D02*
X72390Y424180D01*
X73660Y422910D02*
X73660Y388620D01*
X72390Y424180D02*
X52070Y424180D01*
X46990Y429260D01*
X46990Y474980D01*
X46990Y525780D01*
X72390Y525780D01*
X46990Y525780D02*
X46990Y577850D01*
X58420Y589280D01*
X42545Y342265D02*
X18415Y342265D01*
X50800Y350520D02*
X50800Y375920D01*
X50800Y350520D02*
X42545Y342265D01*
X46990Y474980D02*
X72390Y474980D01*
X271330Y429470D02*
X271540Y429260D01*
X289950Y429260D01*
X289520Y469470D02*
X289950Y469900D01*
X289520Y469470D02*
X271330Y469470D01*
X387740Y520310D02*
X415290Y520310D01*
X304800Y603250D02*
X167640Y603250D01*
X304800Y603250D02*
X387740Y520310D01*
X167640Y603250D02*
X153670Y589280D01*
X429130Y489470D02*
X437330Y489470D01*
X429130Y489470D02*
X415290Y503310D01*
X434680Y394610D02*
X434680Y319680D01*
X434680Y394610D02*
X412540Y416750D01*
X412540Y453600D01*
X251460Y584200D02*
X238760Y571500D01*
X281940Y584200D02*
X412540Y453600D01*
X281940Y584200D02*
X251460Y584200D01*
X441706Y83956D02*
X427600Y69850D01*
X441706Y83956D02*
X441706Y102362D01*
X441706Y55744D02*
X441706Y37338D01*
X441706Y55744D02*
X427600Y69850D01*
X419100Y42790D02*
X436254Y42790D01*
X441706Y37338D01*
X410600Y69850D02*
X376800Y69850D01*
X419100Y82550D02*
X419100Y93100D01*
X419100Y82550D02*
X410600Y74050D01*
X410600Y69850D01*
X162306Y38744D02*
X162306Y37338D01*
X162306Y38744D02*
X139700Y61350D01*
X139700Y42790D01*
X233225Y55319D02*
X251206Y37338D01*
X233225Y55319D02*
X227296Y60046D01*
X228600Y61350D02*
X228600Y42790D01*
X227296Y60046D02*
X228600Y61350D01*
X317500Y61350D02*
X319600Y59250D01*
X340106Y38744D01*
X340106Y37338D01*
X317500Y42790D02*
X317500Y57150D01*
X319600Y59250D01*
X231530Y443620D02*
X231530Y474980D01*
X231530Y443620D02*
X214630Y426720D01*
X183490Y355170D02*
X183490Y339930D01*
X183490Y355170D02*
X214630Y386310D01*
X214630Y426720D01*
X133350Y339970D02*
X137160Y336160D01*
X133350Y339970D02*
X113410Y339970D01*
X112370Y338930D01*
X137160Y336160D02*
X142240Y336160D01*
X160470Y317930D01*
X173990Y317930D01*
X93370Y338930D02*
X78600Y338930D01*
X59350Y319680D01*
X32680Y319680D01*
X149860Y506730D02*
X149860Y518160D01*
X116840Y551180D01*
X72390Y551180D01*
M02*
