G04 EAGLE Gerber RS-274X export*
G75*
%MOMM*%
%FSLAX34Y34*%
%LPD*%
%INTop Copper*%
%IPPOS*%
%AMOC8*
5,1,8,0,0,1.08239X$1,22.5*%
G01*
%ADD10R,1.000000X0.800000*%
%ADD11R,2.200000X0.600000*%
%ADD12C,1.524000*%
%ADD13R,1.000000X1.100000*%
%ADD14R,1.100000X1.000000*%
%ADD15C,0.406400*%


D10*
X16670Y91440D03*
X36670Y91440D03*
D11*
X60360Y80010D03*
X112360Y80010D03*
X60360Y92710D03*
X60360Y67310D03*
X60360Y54610D03*
X112360Y92710D03*
X112360Y67310D03*
X112360Y54610D03*
D12*
X50800Y110490D02*
X50800Y125730D01*
X25400Y125730D02*
X25400Y110490D01*
X25400Y33020D02*
X25400Y17780D01*
X50800Y17780D02*
X50800Y33020D01*
D13*
X80010Y20710D03*
X80010Y37710D03*
X26670Y55000D03*
X26670Y72000D03*
D14*
X96130Y115570D03*
X79130Y115570D03*
D15*
X80400Y114300D01*
X80400Y86750D01*
X73660Y80010D01*
X60360Y80010D01*
X59090Y81280D02*
X45560Y81280D01*
X36670Y90170D01*
X36670Y91440D01*
X59090Y81280D02*
X60360Y80010D01*
X26670Y72000D02*
X26670Y67310D01*
X60360Y67310D01*
X73660Y67310D01*
X81280Y59690D01*
X81280Y36440D01*
X80010Y37710D01*
X16670Y91440D02*
X15240Y92870D01*
X59970Y55000D02*
X60360Y54610D01*
X59970Y55000D02*
X26670Y55000D01*
X21200Y55000D01*
X12700Y87470D02*
X16670Y91440D01*
X12700Y63500D02*
X21200Y55000D01*
X12700Y63500D02*
X12700Y87470D01*
X26670Y55000D02*
X25400Y53730D01*
X25400Y25400D01*
X16670Y109380D02*
X25400Y118110D01*
X16670Y109380D02*
X16670Y91440D01*
X50800Y118110D02*
X60360Y108550D01*
X60360Y92710D01*
X96130Y115570D02*
X99060Y118500D01*
X96130Y115570D02*
X93590Y113030D01*
X93590Y92710D02*
X112360Y92710D01*
X93590Y93785D02*
X93590Y113030D01*
X50800Y25400D02*
X58420Y17780D01*
X77080Y17780D01*
X80010Y20710D01*
X89290Y20710D01*
X93590Y25010D01*
X93590Y92710D01*
M02*
